<svg width="38" height="38" viewBox="0 0 38 38" fill="none" xmlns="http://www.w3.org/2000/svg">
<path d="M30.0709 21.7821C31.0893 24.0949 31.1804 27.8607 28.0958 30.8683C25.7368 33.1652 22.8766 34.1995 18.8126 34.228H18.7963C14.2279 34.1963 10.717 32.6989 8.35476 29.7738C6.25604 27.1723 5.17251 23.5492 5.13672 19.0093V18.9902C5.17251 14.4503 6.25604 10.8273 8.35476 8.22576C10.717 5.30066 14.2279 3.80321 18.7963 3.77148H18.8126C23.3907 3.80321 26.9439 5.29431 29.3713 8.20989C30.572 9.64706 31.4505 11.3793 32.0102 13.3907L29.3843 14.076C28.9223 12.4389 28.2227 11.0398 27.2921 9.92307C25.3984 7.65152 22.5415 6.48719 18.8061 6.45864C15.0935 6.48402 12.2887 7.64518 10.4632 9.90721C8.75498 12.0265 7.86994 15.0848 7.8374 18.9998C7.86994 22.9147 8.75498 25.973 10.4632 28.0923C12.2887 30.3543 15.0935 31.5123 18.8061 31.5409C22.151 31.5155 24.3636 30.7414 26.2053 28.9457C28.3073 26.8994 28.2682 24.3868 27.5947 22.8608C27.201 21.9598 26.4851 21.211 25.5188 20.6431C25.2845 22.3532 24.7508 23.711 23.9081 24.758C22.7985 26.1348 21.2107 26.8899 19.1835 26.9978C17.6477 27.0803 16.1705 26.7186 15.0251 25.9826C13.6683 25.1069 12.8743 23.7713 12.7897 22.2199C12.6238 19.1552 15.113 16.9535 18.9883 16.7346C20.3647 16.6584 21.6532 16.7187 22.8408 16.9154C22.6847 15.9731 22.3658 15.2276 21.8875 14.6883C21.2334 13.9459 20.2183 13.5652 18.8777 13.5557H18.8386C17.7616 13.5557 16.3006 13.8507 15.3668 15.2308L13.1249 13.7301C14.3744 11.8837 16.4015 10.8685 18.8386 10.8685H18.8939C22.971 10.8939 25.3984 13.3748 25.6391 17.7054C25.778 17.7646 25.9146 17.8249 26.0491 17.8862C27.9494 18.7777 29.342 20.1229 30.0709 21.7821ZM22.9092 19.6723C22.0469 19.4883 21.0968 19.39 20.0848 19.39C19.7746 19.39 19.4601 19.3995 19.1412 19.4185C16.3494 19.574 15.4221 20.8938 15.4872 22.074C15.575 23.6634 17.3386 24.409 19.0371 24.3138C20.6998 24.225 22.587 23.5905 22.9092 19.6723Z" fill="#4D3016"/>
</svg>
