<svg width="107" height="50" viewBox="0 0 107 50" fill="none" xmlns="http://www.w3.org/2000/svg">
<rect width="107" height="50" rx="25" fill="#FFB403"/>
<path d="M32.9844 31V19.7344H36.8047C38.0182 19.7344 39.0573 19.9688 39.9219 20.4375C40.7865 20.9062 41.4401 21.5651 41.8828 22.4141C42.3255 23.263 42.5469 24.2526 42.5469 25.3828C42.5469 26.5078 42.3255 27.4948 41.8828 28.3438C41.4401 29.1875 40.7865 29.8411 39.9219 30.3047C39.0573 30.7682 38.0182 31 36.8047 31H32.9844ZM36.7891 29.1641C37.5182 29.1641 38.1432 29.0104 38.6641 28.7031C39.1901 28.3958 39.5911 27.9583 39.8672 27.3906C40.1484 26.8229 40.2891 26.1536 40.2891 25.3828C40.2891 24.6068 40.1484 23.9323 39.8672 23.3594C39.5911 22.7865 39.1901 22.3464 38.6641 22.0391C38.138 21.7318 37.5104 21.5781 36.7812 21.5781H35.1875L35.1953 29.1641H36.7891ZM43.68 31V19.7344H48.4613C49.2373 19.7344 49.9014 19.875 50.4534 20.1562C51.0107 20.4323 51.4352 20.8281 51.7269 21.3438C52.0185 21.8542 52.1644 22.4557 52.1644 23.1484C52.1644 23.6901 52.0706 24.1849 51.8831 24.6328C51.6956 25.0807 51.417 25.4609 51.0472 25.7734C50.6826 26.0859 50.2451 26.3073 49.7347 26.4375L52.3988 31H49.8675L47.4066 26.5938H45.9378V31H43.68ZM48.0238 24.8047C48.5863 24.8047 49.0394 24.6693 49.3831 24.3984C49.7321 24.1224 49.9066 23.7161 49.9066 23.1797C49.9066 22.8047 49.8206 22.4974 49.6488 22.2578C49.4821 22.013 49.2555 21.8359 48.9691 21.7266C48.6878 21.6172 48.3649 21.5625 48.0003 21.5625H45.9378V24.8047H48.0238ZM52.4928 31L56.5475 19.7344H59.3288L63.3834 31H60.9694L60.1256 28.4844H55.7506L54.9069 31H52.4928ZM56.2897 26.7734H59.5788L58.3913 23.2422C58.2402 22.7786 58.0996 22.2839 57.9694 21.7578H57.9069C57.7715 22.2839 57.6282 22.7786 57.4772 23.2422L56.2897 26.7734ZM68.8681 31.1797C67.8108 31.1797 66.8785 30.9375 66.0713 30.4531C65.2692 29.9688 64.6468 29.2891 64.2041 28.4141C63.7614 27.5339 63.54 26.5208 63.54 25.375C63.54 24.2448 63.7666 23.2396 64.2197 22.3594C64.678 21.4792 65.3265 20.7917 66.165 20.2969C67.0035 19.8021 67.9827 19.5547 69.1025 19.5547C70.0088 19.5547 70.8134 19.7161 71.5166 20.0391C72.2197 20.362 72.7926 20.8255 73.2353 21.4297C73.6832 22.0286 73.9879 22.7422 74.1494 23.5703H71.9541C71.8395 23.1328 71.6572 22.7604 71.4072 22.4531C71.1572 22.1406 70.8421 21.901 70.4619 21.7344C70.0817 21.5677 69.6442 21.4844 69.1494 21.4844C68.4515 21.4844 67.8551 21.6562 67.3603 22C66.8655 22.3385 66.4905 22.8073 66.2353 23.4062C65.9801 24 65.8525 24.6693 65.8525 25.4141C65.8525 26.1693 65.9827 26.8359 66.2431 27.4141C66.5035 27.9922 66.8811 28.4427 67.3759 28.7656C67.8759 29.0885 68.4671 29.25 69.1494 29.25C69.7067 29.25 70.1936 29.1589 70.6103 28.9766C71.0322 28.7943 71.3733 28.513 71.6338 28.1328C71.8994 27.7474 72.0686 27.2682 72.1416 26.6953H69.1338V25.0156H74.2353V31H72.6416V29.2344H72.5791C72.3655 29.6354 72.0791 29.9844 71.7197 30.2812C71.3655 30.5729 70.9463 30.7969 70.4619 30.9531C69.9775 31.1042 69.4463 31.1797 68.8681 31.1797Z" fill="#4D3016"/>
</svg>
