<svg width="157" height="39" viewBox="0 0 157 39" fill="none" xmlns="http://www.w3.org/2000/svg">
<rect width="157" height="39" rx="19.5" fill="#FFB403"/>
<path d="M29.908 25.168C29.1613 25.168 28.4707 25.0327 27.836 24.762C27.2013 24.4913 26.646 24.1133 26.17 23.628C25.7033 23.1427 25.3347 22.5733 25.064 21.92C24.8027 21.2667 24.672 20.5527 24.672 19.778C24.672 19.0033 24.8027 18.2893 25.064 17.636C25.3253 16.9733 25.6893 16.404 26.156 15.928C26.632 15.4427 27.1873 15.0693 27.822 14.808C28.4567 14.5373 29.152 14.402 29.908 14.402C30.6547 14.402 31.322 14.528 31.91 14.78C32.5073 15.032 33.0113 15.368 33.422 15.788C33.842 16.1987 34.1407 16.656 34.318 17.16L32.554 17.986C32.3673 17.4633 32.0407 17.034 31.574 16.698C31.1167 16.362 30.5613 16.194 29.908 16.194C29.264 16.194 28.6947 16.348 28.2 16.656C27.7053 16.9547 27.3227 17.37 27.052 17.902C26.7813 18.434 26.646 19.0593 26.646 19.778C26.646 20.4967 26.7813 21.1267 27.052 21.668C27.3227 22.2 27.7053 22.62 28.2 22.928C28.6947 23.2267 29.264 23.376 29.908 23.376C30.5613 23.376 31.1167 23.208 31.574 22.872C32.0407 22.536 32.3673 22.1067 32.554 21.584L34.318 22.424C34.1407 22.9187 33.842 23.376 33.422 23.796C33.0113 24.2067 32.5073 24.538 31.91 24.79C31.322 25.042 30.6547 25.168 29.908 25.168ZM35.4018 25V14.57H37.3758V23.264H41.8278V25H35.4018ZM47.4896 25.168C46.7149 25.168 45.9963 25.0327 45.3336 24.762C44.6709 24.4913 44.0923 24.1133 43.5976 23.628C43.1029 23.1427 42.7156 22.5733 42.4356 21.92C42.1556 21.2573 42.0156 20.5433 42.0156 19.778C42.0156 19.0127 42.1509 18.3033 42.4216 17.65C42.7016 16.9873 43.0889 16.418 43.5836 15.942C44.0783 15.4567 44.6569 15.0787 45.3196 14.808C45.9823 14.5373 46.7056 14.402 47.4896 14.402C48.2736 14.402 48.9969 14.5373 49.6596 14.808C50.3223 15.0787 50.9009 15.4567 51.3956 15.942C51.8903 16.4273 52.2729 16.9967 52.5436 17.65C52.8236 18.3033 52.9636 19.0127 52.9636 19.778C52.9636 20.5433 52.8236 21.2573 52.5436 21.92C52.2636 22.5733 51.8763 23.1427 51.3816 23.628C50.8869 24.1133 50.3083 24.4913 49.6456 24.762C48.9829 25.0327 48.2643 25.168 47.4896 25.168ZM47.4896 23.376C47.9936 23.376 48.4556 23.2873 48.8756 23.11C49.2956 22.9327 49.6643 22.6853 49.9816 22.368C50.3083 22.0413 50.5556 21.6587 50.7236 21.22C50.9009 20.7813 50.9896 20.3007 50.9896 19.778C50.9896 19.2553 50.9009 18.7793 50.7236 18.35C50.5556 17.9113 50.3083 17.5287 49.9816 17.202C49.6643 16.8753 49.2956 16.628 48.8756 16.46C48.4556 16.2827 47.9936 16.194 47.4896 16.194C46.9856 16.194 46.5236 16.2827 46.1036 16.46C45.6836 16.628 45.3103 16.8753 44.9836 17.202C44.6663 17.5287 44.4189 17.9113 44.2416 18.35C44.0736 18.7793 43.9896 19.2553 43.9896 19.778C43.9896 20.3007 44.0736 20.7813 44.2416 21.22C44.4189 21.6587 44.6663 22.0413 44.9836 22.368C45.3103 22.6853 45.6836 22.9327 46.1036 23.11C46.5329 23.2873 46.9949 23.376 47.4896 23.376ZM57.9326 25.168C57.2793 25.168 56.6679 25.0467 56.0986 24.804C55.5386 24.5613 55.0533 24.2253 54.6426 23.796C54.2319 23.3573 53.9286 22.8487 53.7326 22.27L55.3706 21.542C55.6226 22.1393 55.9866 22.606 56.4626 22.942C56.9386 23.278 57.4706 23.446 58.0586 23.446C58.3853 23.446 58.6653 23.3947 58.8986 23.292C59.1413 23.1893 59.3279 23.0493 59.4586 22.872C59.5893 22.6853 59.6546 22.466 59.6546 22.214C59.6546 21.9247 59.5659 21.6867 59.3886 21.5C59.2206 21.304 58.9593 21.15 58.6046 21.038L56.5886 20.38C55.7766 20.1187 55.1606 19.7407 54.7406 19.246C54.3299 18.742 54.1246 18.1447 54.1246 17.454C54.1246 16.8567 54.2739 16.3293 54.5726 15.872C54.8713 15.4053 55.2866 15.046 55.8186 14.794C56.3506 14.5327 56.9573 14.402 57.6386 14.402C58.2639 14.402 58.8379 14.514 59.3606 14.738C59.8926 14.9527 60.3453 15.256 60.7186 15.648C61.1013 16.0307 61.3859 16.488 61.5726 17.02L59.9626 17.734C59.7573 17.23 59.4493 16.838 59.0386 16.558C58.6373 16.2687 58.1753 16.124 57.6526 16.124C57.3353 16.124 57.0553 16.1753 56.8126 16.278C56.5793 16.3807 56.3973 16.53 56.2666 16.726C56.1359 16.9127 56.0706 17.1273 56.0706 17.37C56.0706 17.65 56.1593 17.8973 56.3366 18.112C56.5233 18.3173 56.7986 18.4807 57.1626 18.602L59.0946 19.218C59.9346 19.4793 60.5599 19.8527 60.9706 20.338C61.3906 20.814 61.6006 21.402 61.6006 22.102C61.6006 22.6993 61.4419 23.2313 61.1246 23.698C60.8166 24.1553 60.3873 24.5147 59.8366 24.776C59.2953 25.0373 58.6606 25.168 57.9326 25.168ZM62.8391 25V14.57H69.7971V16.306H64.8131V18.91H69.5171V20.632H64.8131V23.264H69.7971V25H62.8391ZM77.7562 25.168C77.0095 25.168 76.3142 25.0327 75.6702 24.762C75.0355 24.4913 74.4755 24.1133 73.9902 23.628C73.5142 23.1427 73.1408 22.5733 72.8702 21.92C72.6088 21.2667 72.4782 20.5527 72.4782 19.778C72.4782 19.0033 72.6088 18.2893 72.8702 17.636C73.1315 16.9733 73.4955 16.404 73.9622 15.928C74.4382 15.4427 74.9935 15.0693 75.6282 14.808C76.2628 14.5373 76.9582 14.402 77.7142 14.402C78.4608 14.402 79.1282 14.528 79.7162 14.78C80.3135 15.032 80.8175 15.368 81.2282 15.788C81.6482 16.1987 81.9468 16.656 82.1242 17.16L80.3742 18C80.1782 17.468 79.8468 17.034 79.3802 16.698C78.9228 16.362 78.3675 16.194 77.7142 16.194C77.0702 16.194 76.5008 16.348 76.0062 16.656C75.5115 16.9547 75.1288 17.37 74.8582 17.902C74.5875 18.434 74.4522 19.0593 74.4522 19.778C74.4522 20.4967 74.5922 21.1267 74.8722 21.668C75.1615 22.2 75.5535 22.62 76.0482 22.928C76.5428 23.2267 77.1122 23.376 77.7562 23.376C78.2695 23.376 78.7455 23.2733 79.1842 23.068C79.6228 22.8627 79.9775 22.5733 80.2482 22.2C80.5188 21.8267 80.6542 21.3787 80.6542 20.856V20.044L81.5502 20.814H77.7142V19.148H82.6282V20.212C82.6282 21.0333 82.4882 21.7567 82.2082 22.382C81.9375 22.998 81.5688 23.516 81.1022 23.936C80.6448 24.3467 80.1222 24.6547 79.5342 24.86C78.9555 25.0653 78.3628 25.168 77.7562 25.168ZM82.7238 25L86.3078 14.57H88.8698L92.4538 25H90.3118L89.5698 22.788H85.5938L84.8518 25H82.7238ZM86.1538 21.066H89.0098L87.3158 15.928H87.8618L86.1538 21.066ZM93.1649 25V14.57H95.1389V23.264H99.5909V25H93.1649ZM100.36 25V14.57H102.334V23.264H106.786V25H100.36ZM107.555 25V14.57H114.513V16.306H109.529V18.91H114.233V20.632H109.529V23.264H114.513V25H107.555ZM115.434 25V14.57H119.354C120.064 14.57 120.689 14.7007 121.23 14.962C121.781 15.214 122.21 15.5873 122.518 16.082C122.836 16.5673 122.994 17.1647 122.994 17.874C122.994 18.5927 122.826 19.204 122.49 19.708C122.154 20.212 121.697 20.5853 121.118 20.828L123.512 25H121.286L118.71 20.408L119.998 21.164H117.408V25H115.434ZM117.408 19.428H119.368C119.704 19.428 119.994 19.3627 120.236 19.232C120.488 19.1013 120.68 18.9193 120.81 18.686C120.95 18.4527 121.02 18.182 121.02 17.874C121.02 17.5567 120.95 17.2813 120.81 17.048C120.68 16.8147 120.488 16.6327 120.236 16.502C119.994 16.3713 119.704 16.306 119.368 16.306H117.408V19.428ZM126.821 25V20.394L123.321 14.57H125.575L128.221 19.078H127.409L130.041 14.57H132.295L128.795 20.38V25H126.821Z" fill="#4D3016"/>
</svg>
