<svg width="512" height="512" viewBox="0 0 512 512" fill="none" xmlns="http://www.w3.org/2000/svg">
<rect width="512" height="512" rx="256" fill="#FBF8F0"/>
<g clip-path="url(#clip0_1397_77578)">
<rect x="20" y="20" width="472" height="472" rx="236" fill="#FBF8F0"/>
<path d="M232.777 490.918C238.628 491.492 244.544 491.853 250.526 491.984V411.47L228.811 423.403L232.777 490.902V490.918Z" fill="#4D3016"/>
<path d="M184.921 405.406L114.384 444.711C122.086 450.514 130.15 455.841 138.524 460.677L173.711 432.697L184.921 405.406Z" fill="#4D3016"/>
<path d="M205.621 356.084L204.047 356.871L203.998 356.888L120.054 398.997L97.88 431.09C100.191 433.172 102.534 435.205 104.927 437.204L193.771 387.703L194.132 387.556L250.526 365.854V329.449H229.384L205.621 356.084Z" fill="#4D3016"/>
<path d="M187.363 481.87C198.426 485.247 209.849 487.82 221.534 489.541L218.437 436.762L187.363 481.87Z" fill="#4D3016"/>
<path d="M31.7017 329.465C34.9794 339.48 38.9128 349.2 43.4525 358.576L95.6839 329.465H31.7017Z" fill="#4D3016"/>
<path d="M173.056 359.953L108.467 366.313L74.1489 406.323C79.0492 412.241 84.2444 417.928 89.6856 423.337L112.499 390.326L173.039 359.953H173.056Z" fill="#4D3016"/>
<path d="M199.557 346.135L214.421 329.465H118.596L48.5494 368.493C54.0397 378.59 60.2511 388.228 67.1017 397.374L102.911 355.626L199.557 346.119V346.135Z" fill="#4D3016"/>
<path d="M182.922 439.63L149.161 466.463C157.913 470.921 166.976 474.855 176.317 478.215L219.174 415.978L250.51 398.751V377.803L200.36 397.112L182.906 439.63H182.922Z" fill="#4D3016"/>
<path d="M261.687 356.003V492C268.144 491.852 274.536 491.426 280.862 490.771L281.468 407.077L301.659 370.181L261.687 356.019V356.003Z" fill="#4D3016"/>
<path d="M360.758 360.608L261.671 331.35V344.168L313.148 362.411L334.159 390.817L368.346 401.16L391.323 449.317C396.059 445.99 400.665 442.499 405.139 438.827L385.751 390.342L360.758 360.625V360.608Z" fill="#4D3016"/>
<path d="M416.824 347.414L475.906 341.677C477.479 337.661 478.938 333.579 480.282 329.465H381.064L416.824 347.414Z" fill="#4D3016"/>
<path d="M414.087 431.14C426.543 419.879 437.802 407.307 447.635 393.637L398.878 393.096L414.087 431.14Z" fill="#4D3016"/>
<path d="M356.218 329.465H294.661L367.149 350.872L393.224 381.884L455.141 382.573C461.074 373.262 466.384 363.51 470.989 353.38L414.71 358.838L356.218 329.465Z" fill="#4D3016"/>
<path d="M339.043 403.947L358.152 468.79C366.363 464.84 374.295 460.414 381.932 455.562L360.397 410.405L339.043 403.947Z" fill="#4D3016"/>
<path d="M292.023 489.312C302.118 487.755 311.984 485.558 321.621 482.772L292.449 429.894L292.023 489.328V489.312Z" fill="#4D3016"/>
<path d="M310.395 377.426L293.399 408.487L332.487 479.33C337.715 477.543 342.861 475.576 347.909 473.429L325.718 398.144L310.395 377.426Z" fill="#4D3016"/>
<path d="M339.256 189.698C345.13 189.698 349.892 182.264 349.892 173.094C349.892 163.923 345.13 156.489 339.256 156.489C333.381 156.489 328.619 163.923 328.619 173.094C328.619 182.264 333.381 189.698 339.256 189.698Z" fill="#4D3016"/>
<path d="M226.877 189.698C232.806 189.698 237.612 182.264 237.612 173.094C237.612 163.923 232.806 156.489 226.877 156.489C220.948 156.489 216.142 163.923 216.142 173.094C216.142 182.264 220.948 189.698 226.877 189.698Z" fill="#4D3016"/>
<path d="M421.593 244.395C424.232 244.395 425.002 242.772 425.002 241.248C425.002 235.708 421.167 232.134 415.464 232.134C408.744 232.134 404.221 237.412 403.795 243.723L404.483 244.411H421.593V244.395Z" fill="#4D3016"/>
<path d="M256 20C125.872 20 20 125.887 20 256.033C20 277.571 22.9172 298.453 28.3583 318.303H483.658C489.099 298.453 492.016 277.587 492.016 256.033C492 125.887 386.128 20 256 20ZM338.141 150.867C343.681 150.867 347.335 152.818 349.892 154.948V144.901C349.892 143.196 348.188 141.491 346.483 141.491H345.467L344.779 140.803V138.508L345.467 137.82L358.578 132.788H361.299L361.987 133.476L361.135 141.475V185.584C361.135 187.288 362.839 188.993 364.544 188.993H365.56L366.248 189.681V193.435L365.56 194.123H350.056L349.368 193.435V189.78C346.729 193.009 342.812 195.32 336.338 195.32C327.308 195.32 316.836 188.682 316.836 173.094C316.836 159.128 327.308 150.867 338.125 150.867H338.141ZM305.757 93.3341V99.1693H288.089V104.857H304.855V110.692H288.089V117.527H306.724L306.674 117.904L306.969 117.331V123.576H303.724L303.823 123.379H280.78V93.3341H305.757ZM277.65 152.064L278.338 152.752L277.486 158.456C280.551 153.949 285.582 150.883 292.138 150.883C300.988 150.883 307.117 155.653 307.117 165.439V185.616C307.117 187.321 308.821 189.026 310.526 189.026H311.542L312.23 189.714V193.468L311.542 194.156H291.449L290.761 193.468V189.714L291.449 189.026H292.465C294.17 189.026 295.874 187.321 295.874 185.616V165.865C295.874 160.243 292.465 157.686 287.876 157.686C282.517 157.686 278.338 161.866 278.338 168.848V185.633C278.338 187.337 280.043 189.042 281.747 189.042H282.763L283.451 189.731V193.484L282.763 194.173H262.67L261.982 193.484V189.731L262.67 189.042H263.686C265.391 189.042 267.095 187.337 267.095 185.633V164.177C267.095 162.472 265.391 160.767 263.686 160.767H262.67L261.982 160.079V157.784L262.49 157.096L274.929 152.064H277.65ZM263.686 215.006C263.686 218.923 260.54 222.07 256.623 222.07C252.706 222.07 249.559 218.923 249.559 215.006C249.559 211.088 252.706 207.941 256.623 207.941C260.54 207.941 263.686 211.088 263.686 215.006ZM241.791 93.3341H249.084V104.628H262.916V93.3341H270.209V123.379H262.916V110.43H249.084V123.379H241.791V93.3341ZM205.998 93.3341H234.399V99.1366H223.861V123.379H216.568V99.1366H205.998V93.3341ZM146.719 189.698L147.407 189.009H150.128C151.832 189.009 153.537 187.305 153.537 185.6V143.016C153.537 141.311 151.832 139.606 150.128 139.606H147.407L146.719 138.918V135.164L147.407 134.476H171.925L172.613 135.164V138.918L171.925 139.606H169.024C167.32 139.606 165.615 141.311 165.615 143.016V185.6C165.615 187.305 167.32 189.009 169.024 189.009H177.973C187.249 189.009 191.166 183.043 191.772 175.896L192.46 175.208H196.213L196.721 175.896L195.443 193.435L194.755 194.123H147.407L146.719 193.435V189.681V189.698ZM108.828 214.76L108.139 215.448H105.419C103.714 215.448 102.01 217.153 102.01 218.858V261.442C102.01 263.147 103.714 264.851 105.419 264.851H108.139L108.828 265.54V269.293L108.139 269.982H83.7856L83.0972 269.293V265.54L83.7856 264.851H86.5061C88.2106 264.851 89.915 263.147 89.915 261.442V218.858C89.915 217.153 88.2106 215.448 86.5061 215.448H83.7856L83.0972 214.76V211.006L83.7856 210.318H108.139L108.828 211.006V214.76ZM166.664 269.26L165.976 269.949H145.883L145.195 269.26V265.507L145.883 264.818H146.899C148.604 264.818 150.308 263.114 150.308 261.409V241.658C150.308 236.036 146.899 233.479 142.31 233.479C136.951 233.479 132.772 237.658 132.772 244.641V261.425C132.772 263.13 134.476 264.835 136.181 264.835H137.197L137.885 265.523V269.277L137.197 269.965H117.104L116.416 269.277V265.523L117.104 264.835H118.12C119.825 264.835 121.529 263.13 121.529 261.425V239.969C121.529 238.265 119.825 236.56 118.12 236.56H117.104L116.416 235.872V233.577L116.924 232.888L129.363 227.856H132.084L132.772 228.545L131.92 234.249C134.984 229.741 140.016 226.676 146.571 226.676C155.421 226.676 161.551 231.446 161.551 241.232V261.409C161.551 263.114 163.255 264.818 164.96 264.818H165.976L166.664 265.507V269.26ZM187.429 271.129C181.136 271.129 176.186 269.424 172.958 267.375L172.531 266.523L174.826 257.147L175.514 256.459H178.415L179.103 257.147C179.103 262.933 182.004 266.523 186.937 266.523C191.444 266.523 193.067 263.376 193.067 260.475C193.067 256.393 191.018 254.689 186.167 252.804C177.645 249.575 173.728 245.559 173.728 239.691C173.728 231.774 180.464 226.66 189.232 226.66C193.493 226.66 196.803 227.512 199.704 229.037L200.294 229.889L200.72 239.429L200.032 240.117H196.803L196.115 239.429C195.689 234.823 193.821 231.331 189.133 231.331C186.233 231.331 183.594 233.2 183.594 236.527C183.594 240.101 186.495 242.313 192.624 244.87C198.409 247.247 203.441 250.148 203.441 257.393C203.441 266.671 195.771 271.113 187.429 271.113V271.129ZM227.483 271.129C221.01 271.129 215.143 267.556 215.143 258.688V233.315H208.849L208.161 232.626V230.758L224.255 216.104H225.697L226.385 216.792V227.856H237.12L237.808 228.545V232.626L237.12 233.315H226.385V259.459C226.385 262.95 228.516 264.655 231.236 264.655C233.957 264.655 235.579 263.212 236.776 260.901L237.464 260.639L239.169 261.327L239.513 262.016C238.153 266.195 235.17 271.129 227.5 271.129H227.483ZM238.808 194.976L238.12 194.287V188.583C234.973 192.665 230.974 195.304 224.664 195.304C213.602 195.304 204.572 187.206 204.572 173.503C204.572 158.85 215.044 150.851 226.025 150.851C233.596 150.851 237.694 154.604 240.07 157.489H240.496L244.675 152.031H248.166L248.854 152.719V182.863C248.854 184.567 250.559 186.272 252.263 186.272H253.279L253.968 186.96V189.255L253.279 189.944L241.529 194.976H238.808ZM267.259 269.26L266.571 269.949H246.478L245.79 269.26V265.507L246.478 264.818H247.494C249.199 264.818 250.903 263.114 250.903 261.409V239.953C250.903 238.248 249.199 236.544 247.494 236.544H246.478L245.79 235.855V233.561L246.298 232.872L259.589 227.84H262.146L262.998 228.692L262.146 236.527V261.393C262.146 263.097 263.85 264.802 265.555 264.802H266.571L267.259 265.491V269.26ZM289.794 271.129C283.32 271.129 277.453 267.556 277.453 258.688V233.315H271.16L270.471 232.626V230.758L286.565 216.104H288.008L288.696 216.792V227.856H299.431L300.119 228.545V232.626L299.431 233.315H288.696V259.459C288.696 262.95 290.826 264.655 293.547 264.655C296.268 264.655 297.89 263.212 299.086 260.901L299.775 260.639L301.479 261.327L301.823 262.016C300.463 266.195 297.48 271.129 289.81 271.129H289.794ZM356.218 265.081L355.53 265.769L343.271 270.801H340.55L339.862 270.113V264.753C336.879 268.588 331.602 271.145 326.063 271.145C317.213 271.145 311.083 266.376 311.083 256.59V239.134C311.083 237.429 309.379 235.724 307.674 235.724H306.658L305.97 235.036V232.741L306.478 232.053L319.769 227.365H322.49L323.178 228.053L322.326 236.052V256.229C322.326 261.852 325.735 264.409 330.324 264.409C335.683 264.409 339.862 260.229 339.862 253.246V239.117C339.862 237.412 338.158 235.708 336.453 235.708H335.437L334.749 235.019V232.725L335.257 232.036L348.532 227.348H351.252L351.941 228.037L351.088 236.036V258.688C351.088 260.393 352.793 262.098 354.497 262.098H355.513L356.202 262.786V265.081H356.218ZM377.835 271.129C371.361 271.129 365.494 267.556 365.494 258.688V233.315H359.201L358.513 232.626V230.758L374.606 216.104H376.049L376.737 216.792V227.856H387.472L388.16 228.545V232.626L387.472 233.315H376.737V259.459C376.737 262.95 378.868 264.655 381.588 264.655C384.309 264.655 385.931 263.212 387.128 260.901L387.816 260.639L389.52 261.327L389.864 262.016C388.504 266.195 385.521 271.129 377.851 271.129H377.835ZM415.644 271.129C402.369 271.129 393.159 261.327 393.159 248.558C393.159 235.79 402.861 226.676 415.382 226.676C429.608 226.676 436.163 237.232 436.163 249.165L435.475 249.853H403.795C403.795 257.344 409.416 263.13 418.103 263.13C425.248 263.13 430.542 260.147 434.196 254.607L434.885 254.263L436.163 254.771L436.425 255.459C433.705 264.999 425.953 271.129 415.644 271.129Z" fill="#4D3016"/>
</g>
<defs>
<clipPath id="clip0_1397_77578">
<rect x="20" y="20" width="472" height="472" rx="236" fill="white"/>
</clipPath>
</defs>
</svg>
